<svg width="816" height="816" viewBox="0 0 816 816" fill="none" xmlns="http://www.w3.org/2000/svg">
<g id="About">
<rect id="Background" x="4.46447" y="408.222" width="571" height="571" transform="rotate(-45 4.46447 408.222)" fill="url(#paint0_linear)" stroke="black" stroke-width="5"/>
<path id="Background hair" d="M356 214C325.227 214 301 243.271 301 276.655V383.345C301 417.548 325.251 446 356 446H457C487.749 446 512 417.548 512 383.345V276.655C512 239.131 487.649 214 457 214H356Z" fill="url(#paint1_linear)" stroke="black" stroke-width="6"/>
<rect id="Neck" x="372.5" y="353.5" width="67" height="175" fill="white" stroke="black" stroke-width="5"/>
<path id="Face" d="M506 284C506 348.486 460.836 400 406 400C351.164 400 306 348.486 306 284C306 219.514 351.164 168 406 168C460.836 168 506 219.514 506 284Z" fill="white" stroke="black" stroke-width="6"/>
<path id="Bangs" d="M366.249 169.541L365.96 169.632L365.701 169.79L351.201 178.605L351.151 178.635L351.102 178.668L337.102 188.113L336.826 188.299L336.608 188.551L325.108 201.866L324.979 202.016L324.874 202.184L318.374 212.684L318.272 212.849L318.197 213.028L314.723 221.262L310.753 229.404L310.698 229.518L310.654 229.636L307.154 239.136L307.124 239.217L307.1 239.3L303.6 251.3L303.547 251.482L303.522 251.67L301.522 266.67L301.5 266.834V267V322.5V329.325L305.908 324.115L311.408 317.615L311.679 317.295L311.831 316.904L330.212 269.5H425.5H426.854L427.594 268.366L432.441 260.933L435.172 267.911L435.794 269.5H437.5H444.5H446.623L446.967 267.406L451.111 242.193L458.089 267.661L458.593 269.5H460.5H479.347L498.7 314.979L498.958 315.585L499.481 315.986L507.981 322.486L512.166 325.686L511.999 320.421L509.999 257.421L509.99 257.133L509.916 256.856L505.916 241.856L505.871 241.689L505.804 241.531L497.304 221.327L497.235 221.161L497.142 221.007L490.642 210.211L490.586 210.117L490.522 210.03L482.522 199.03L482.383 198.838L482.21 198.676L471.21 188.362L471.16 188.315L471.107 188.27L454.607 174.419L454.346 174.199L454.035 174.058L436.035 165.872L435.745 165.74L435.431 165.686L417.431 162.537L417.217 162.5H417H400H399.862L399.724 162.515L390.724 163.515L390.641 163.524L390.559 163.539L378.559 165.687L378.402 165.715L378.249 165.764L366.249 169.541Z" fill="#53301D" stroke="black" stroke-width="5"/>
<path id="Sweater" d="M322.334 424.59L322.311 424.597L322.289 424.603L300.497 431.073C274.399 438.821 256.5 462.805 256.5 490.029V586.5V587.545L257.244 588.28L406.244 735.28L408 737.012L409.756 735.28L558.756 588.28L559.5 587.545V586.5V491.064C559.5 463.33 540.938 439.028 514.182 431.731L497.184 427.095L497.158 427.088L443.646 411.869C441.567 411.278 439.5 412.839 439.5 415V416.921C439.5 438.686 426.726 458.389 406.936 467.298C387.902 459.79 374.741 442.109 373.057 421.659L372.497 414.864C372.413 412.78 370.403 411.295 368.37 411.857L322.334 424.59Z" fill="url(#paint2_linear)" stroke="black" stroke-width="5"/>
<g id="Glasses">
<g id="Nose Bridge">
<path d="M391 285C398.664 279.105 409.336 279.105 417 285V291C409.336 285.105 398.664 285.105 391 291V285Z" fill="black"/>
<path d="M391 285C398.664 279.105 409.336 279.105 417 285V291C409.336 285.105 398.664 285.105 391 291V285Z" stroke="black"/>
</g>
<g id="Frames border">
<path d="M334.5 277.5H393.5V301.5C392 318.5 380 329.5 363.5 329.5C348.5 329.5 334.5 317.621 334.5 300.5V277.5Z" stroke="black" stroke-width="8"/>
<path d="M415.5 277.5H474.5V300.048C474.5 302.344 474.326 304.65 473.713 306.863C469.971 320.368 460.234 328.574 444.5 329.5C429.5 328.5 417.585 319.5 415.5 302.5V277.5Z" stroke="black" stroke-width="8"/>
</g>
<path id="Frames" d="M334.5 277.5H393.5V300C393.5 316.292 380.292 329.5 364 329.5C347.708 329.5 334.5 316.292 334.5 300V277.5ZM415.5 277.5H474.5V300C474.5 316.292 461.292 329.5 445 329.5C428.708 329.5 415.5 316.292 415.5 300V277.5Z" stroke="url(#paint3_linear)" stroke-width="3"/>
</g>
</g>
<defs>
<linearGradient id="paint0_linear" x1="573.843" y1="408.065" x2="8.15729" y2="973.751" gradientUnits="userSpaceOnUse">
<stop stop-color="#2CF7C6"/>
<stop offset="0.505208" stop-color="#30F6CE"/>
<stop offset="1" stop-color="#44FEF3"/>
</linearGradient>
<linearGradient id="paint1_linear" x1="406.5" y1="217" x2="406.5" y2="443" gradientUnits="userSpaceOnUse">
<stop stop-color="#4E352D"/>
<stop offset="0.734375" stop-color="#6C4B40"/>
<stop offset="1" stop-color="#8F694E"/>
</linearGradient>
<linearGradient id="paint2_linear" x1="408" y1="414" x2="408" y2="733.5" gradientUnits="userSpaceOnUse">
<stop stop-color="#FFD7E0"/>
<stop offset="0.979167" stop-color="#FF5981"/>
<stop offset="1" stop-color="#FF567F"/>
</linearGradient>
<linearGradient id="paint3_linear" x1="445" y1="276" x2="445" y2="331" gradientUnits="userSpaceOnUse">
<stop/>
<stop offset="0.0989583" stop-color="#090602"/>
<stop offset="0.338442" stop-color="#1F1506"/>
<stop offset="0.338542" stop-color="#FFA51F"/>
<stop offset="0.359375" stop-color="#FFA822"/>
<stop offset="0.671875" stop-color="#FFCC54"/>
<stop offset="0.9375" stop-color="#FFEA7E"/>
<stop offset="0.979167" stop-color="#FFEA7E"/>
</linearGradient>
</defs>
</svg>
