<svg width="816" height="816" viewBox="0 0 816 816" fill="none" xmlns="http://www.w3.org/2000/svg">
<g id="Portfolio">
<rect id="Background" x="4.46447" y="408.222" width="571" height="571" transform="rotate(-45 4.46447 408.222)" fill="url(#paint0_linear)" stroke="black" stroke-width="5"/>
<g id="Portfolio_2">
<path id="Rectangle 1" d="M234 294C234 283.507 242.507 275 253 275H564C574.493 275 583 283.507 583 294V499C583 509.493 574.493 518 564 518H253C242.507 518 234 509.493 234 499V294Z" fill="#FFD7E0" stroke="black" stroke-width="8"/>
<path id="Rectangle 2" d="M234 294C234 283.507 242.507 275 253 275H564C574.493 275 583 283.507 583 294V331.451L407.503 352.471L234 331.455V294Z" fill="#F88BA5" stroke="black" stroke-width="8"/>
<rect id="Rectangle 3" x="385" y="323" width="47" height="73" rx="5" fill="#FFEA7E" stroke="black" stroke-width="8"/>
<path id="Rectangle 4" d="M343.078 248.794C343.078 240.798 348.981 234.029 356.903 232.942L375.22 230.429C396.643 227.49 418.364 227.435 439.802 230.266L460.524 233.003C468.482 234.054 474.429 240.838 474.429 248.865V265.375H495.375C498.482 265.375 501 267.893 501 271H450.866V253L448.461 252.513C421.28 247.004 393.254 247.17 366.139 253V271H314C314 267.893 316.518 265.375 319.625 265.375H343.078V248.794Z" fill="black"/>
<path id="Polygon 1" d="M403.023 362.753C405.14 367.487 411.86 367.487 413.977 362.753L428.537 330.2C430.312 326.23 427.407 321.75 423.059 321.75H393.941C389.593 321.75 386.688 326.23 388.463 330.2L403.023 362.753Z" fill="black"/>
</g>
<g id="Brush">
<path id="Rectangle 5" d="M188.911 411.636C186.318 408.649 186.433 404.177 189.177 401.329C193.625 396.713 198.57 392.603 203.922 389.075L204.435 388.737C208.015 386.377 212.807 387.159 215.452 390.534L431.429 666.108C434.157 669.588 433.612 674.609 430.201 677.423C426.791 680.237 421.758 679.819 418.859 676.48L188.911 411.636Z" fill="#53301D" stroke="black" stroke-width="4"/>
<path id="Rectangle 6" d="M145.508 368.893C140.647 358.155 137.611 346.681 136.524 334.945L135.118 319.744L137.077 323.262C144.884 337.279 157.599 347.914 172.776 353.119L173.4 353.333L188.181 358.76L196.17 363.35C199.542 365.287 202.368 368.048 204.384 371.375L207.201 376.025C209.516 379.846 208.678 384.787 205.231 387.63L187.754 402.051C185.245 404.121 181.899 404.87 178.748 404.065L178.147 403.912C169.641 401.742 162.047 396.923 156.46 390.152C154.508 387.786 152.878 385.172 151.613 382.377L145.508 368.893Z" fill="#C1A081" stroke="black" stroke-width="4"/>
<path id="Rectangle 7" d="M191.295 397.757C184.078 390.984 177.341 383.754 171.12 376.122C176.797 382.056 182.859 387.641 189.275 392.838L193.303 396.101L191.295 397.757Z" fill="black" stroke="black" stroke-width="4"/>
<g id="Rectangle 8">
<mask id="path-10-inside-1" fill="white">
<path d="M145.05 352.527C156.513 371.009 171.43 387.212 189.02 400.287L190.487 401.378L187.803 403.869L186.909 403.122C169.901 388.916 155.711 371.764 145.05 352.527Z"/>
</mask>
<path d="M145.05 352.527C156.513 371.009 171.43 387.212 189.02 400.287L190.487 401.378L187.803 403.869L186.909 403.122C169.901 388.916 155.711 371.764 145.05 352.527Z" fill="#584A4A"/>
<path d="M145.05 352.527C156.513 371.009 171.43 387.212 189.02 400.287L190.487 401.378L187.803 403.869L186.909 403.122C169.901 388.916 155.711 371.764 145.05 352.527Z" fill="#584A4A"/>
<path d="M190.487 401.378L193.27 404.252L196.723 401.047L192.929 398.227L190.487 401.378ZM187.803 403.869L185.181 406.878L187.948 409.189L190.585 406.743L187.803 403.869ZM187.705 398.504L185.02 400.995L190.585 406.743L193.27 404.252L187.705 398.504ZM190.424 400.859L189.53 400.113L184.287 406.131L185.181 406.878L190.424 400.859ZM186.578 403.438L188.045 404.529L192.929 398.227L191.462 397.136L186.578 403.438ZM141.596 354.578C153.323 373.485 168.583 390.061 186.578 403.438L191.462 397.136C174.277 384.362 159.704 368.532 148.505 350.476L141.596 354.578ZM189.53 400.113C172.901 386.222 159.026 369.452 148.603 350.643L141.498 354.411C152.396 374.076 166.901 391.609 184.287 406.131L189.53 400.113Z" fill="black" mask="url(#path-10-inside-1)"/>
</g>
<g id="Rectangle 9">
<path d="M172.937 356.65L172.999 356.68C181.963 360.919 189.857 367.051 196.113 374.633L196.124 374.646L196.134 374.661L202.69 383.859L205.781 381.669L203.771 378.774C200.714 374.368 197.022 370.418 192.81 367.046C189.259 364.203 185.319 361.861 181.105 360.088L172.937 356.65Z" fill="#584A4A"/>
<path d="M172.937 356.65L172.999 356.68C181.963 360.919 189.857 367.051 196.113 374.633L196.124 374.646L196.134 374.661L202.69 383.859L205.781 381.669L203.771 378.774C200.714 374.368 197.022 370.418 192.81 367.046C189.259 364.203 185.319 361.861 181.105 360.088L172.937 356.65Z" fill="white"/>
<path d="M172.937 356.65L172.999 356.68C181.963 360.919 189.857 367.051 196.113 374.633L196.124 374.646L196.134 374.661L202.69 383.859L205.781 381.669L203.771 378.774C200.714 374.368 197.022 370.418 192.81 367.046C189.259 364.203 185.319 361.861 181.105 360.088L172.937 356.65Z" stroke="black"/>
</g>
<g id="Rectangle 10">
<mask id="path-13-inside-2" fill="white">
<path d="M167.397 357.943L184.381 371.561C186.054 372.902 187.62 374.367 189.066 375.941C192.306 379.471 195.221 383.273 197.778 387.304L200.377 391.402L201.231 390.61L200.526 389.49C196.808 383.587 192.354 378.16 187.267 373.334L167.397 357.943Z"/>
</mask>
<path d="M167.397 357.943L184.381 371.561C186.054 372.902 187.62 374.367 189.066 375.941C192.306 379.471 195.221 383.273 197.778 387.304L200.377 391.402L201.231 390.61L200.526 389.49C196.808 383.587 192.354 378.16 187.267 373.334L167.397 357.943Z" fill="#584A4A"/>
<path d="M167.397 357.943L184.381 371.561C186.054 372.902 187.62 374.367 189.066 375.941C192.306 379.471 195.221 383.273 197.778 387.304L200.377 391.402L201.231 390.61L200.526 389.49C196.808 383.587 192.354 378.16 187.267 373.334L167.397 357.943Z" fill="white"/>
<path d="M167.397 357.943L164.838 361.003L169.903 354.841L167.397 357.943ZM200.377 391.402L203.159 394.276L199.561 397.614L196.944 393.487L200.377 391.402ZM201.231 390.61L204.671 388.536L206.396 391.274L204.013 393.484L201.231 390.61ZM184.381 371.561L186.94 368.5L184.381 371.561ZM197.595 388.528L198.449 387.736L204.013 393.484L203.159 394.276L197.595 388.528ZM184.761 376.436L164.891 361.045L169.903 354.841L189.772 370.232L184.761 376.436ZM169.956 354.882L186.94 368.5L181.822 374.621L164.838 361.003L169.956 354.882ZM197.791 392.684L197.086 391.564L203.966 387.415L204.671 388.536L197.791 392.684ZM201.211 385.219L203.81 389.318L196.944 393.487L194.344 389.389L201.211 385.219ZM192.071 373.298C195.47 377.001 198.529 380.99 201.211 385.219L194.344 389.389C191.913 385.556 189.141 381.941 186.061 378.585L192.071 373.298ZM197.086 391.564C193.544 385.941 189.301 380.772 184.455 376.174L190.078 370.493C195.406 375.548 200.072 381.233 203.966 387.415L197.086 391.564ZM186.94 368.5C188.773 369.969 190.488 371.573 192.071 373.298L186.061 378.585C184.753 377.16 183.336 375.835 181.822 374.621L186.94 368.5Z" fill="black" mask="url(#path-13-inside-2)"/>
</g>
<path id="Rectangle 11" d="M226.782 456.512L174.741 405.227C187.457 400.326 198.448 391.76 206.31 380.599L209.272 376.394L251.656 435.946L250.965 437.225C245.863 446.678 237.129 453.641 226.782 456.512Z" fill="url(#paint1_linear)" stroke="black" stroke-width="4"/>
</g>
<g id="Pen">
<path id="Rectangle 12" d="M418.525 596.762L256.707 398.463C263.455 386.852 274.195 378.088 286.923 373.806L448.741 572.104L418.525 596.762Z" fill="#D2AB5F" stroke="black" stroke-width="4"/>
<path id="Polygon 2" d="M238.583 347.398L238.584 347.399C238.584 347.398 238.583 347.398 238.583 347.398L239.057 346.517L238.583 347.398ZM240.744 348.562L261.567 359.773L286.364 373.124L286.434 373.21C283.043 374.642 280.584 377.698 279.93 381.352C279.886 381.599 279.748 381.82 279.545 381.968L276.933 383.877C276.245 384.38 275.697 385.051 275.34 385.825L274.295 388.098C273.668 389.462 272.33 390.359 270.83 390.423L268.67 390.515C267.808 390.551 266.98 390.866 266.311 391.412L264.959 392.515C264.607 392.803 264.167 392.962 263.713 392.966L262.502 392.977C260.314 392.996 258.357 394.342 257.555 396.378C257.476 396.577 257.284 396.709 257.069 396.711L255.814 396.723L240.744 348.562Z" fill="url(#paint2_linear)" stroke="black" stroke-width="4"/>
<path id="Rectangle 14" d="M418.525 596.762L448.741 572.104L463.282 589.924C467.123 594.631 466.421 601.56 461.714 605.401L448.543 616.149C443.836 619.99 436.907 619.288 433.066 614.581L418.525 596.762Z" fill="#FF8989" stroke="black" stroke-width="4"/>
<rect id="Rectangle 13" x="402.719" y="577.392" width="39" height="30" transform="rotate(-39.2154 402.719 577.392)" fill="#C4C4C4" stroke="black" stroke-width="4"/>
</g>
</g>
<defs>
<linearGradient id="paint0_linear" x1="573.843" y1="408.065" x2="8.15729" y2="973.751" gradientUnits="userSpaceOnUse">
<stop stop-color="#2CF7C6"/>
<stop offset="0.505208" stop-color="#30F6CE"/>
<stop offset="1" stop-color="#44FEF3"/>
</linearGradient>
<linearGradient id="paint1_linear" x1="238.695" y1="402.345" x2="200.139" y2="438.015" gradientUnits="userSpaceOnUse">
<stop stop-color="#C9C9C9"/>
<stop offset="1" stop-color="white"/>
</linearGradient>
<linearGradient id="paint2_linear" x1="237.559" y1="344.318" x2="274.439" y2="389.512" gradientUnits="userSpaceOnUse">
<stop/>
<stop offset="0.369792" stop-color="#666666"/>
<stop offset="0.369892" stop-color="#DCD0BF"/>
<stop offset="1" stop-color="#E4C09C"/>
</linearGradient>
</defs>

<style>

</style>
</svg>
